<svg xmlns="http://www.w3.org/2000/svg" viewBox="0 0 559.09 73.94"><defs><style>.cls-1{fill:#508a7b;}.cls-2{fill:#74c9b4;}</style></defs><title>Con Traccia</title><g id="Livello_2" data-name="Livello 2"><g id="Livello_1-2" data-name="Livello 1"><path class="cls-1" d="M28.5,71H0v-2.4H.25c5.75,0,8.55-2.11,8.55-6.45V13c0-2.12-.54-3.67-1.62-4.61C5.91,7.27,3.57,6.72.25,6.72H0V4.32H53.7v14.8H51.05l0-.2c-.79-3.6-1.81-6.12-3-7.48-1.48-1.67-3.83-2.52-7-2.52H24a6.21,6.21,0,0,0-3.16.56c-.86.55-1.29,1.69-1.29,3.39v21H33.75c7.3,0,10.85-3.06,10.85-9.35v-.25h2.6v23.9H44.6v-.25a8.7,8.7,0,0,0-3.5-7.5,12.79,12.79,0,0,0-7.35-1.95H19.5V62.67c0,4,2.86,6,8.75,6h.25Z"/><path class="cls-1" d="M125.25,68.62c-3.34,0-5.92-2-7.67-6.05L91.68,3.07l-.07-.15H89.18L65.62,59c-2.68,6.4-5.87,9.65-9.47,9.65H55.9V71H76.3v-2.4h-.25c-4.54,0-6.75-1.43-6.75-4.34a18.23,18.23,0,0,1,1.21-4.55l4.12-10.31h26.1l5,12.19a11.5,11.5,0,0,1,.89,3.54,2.52,2.52,0,0,1-.71,1.93c-1,1-3.06,1.54-6.14,1.54H99.5V71h26v-2.4ZM75.7,45.32l12-28.58,12,28.58Z"/><path class="cls-1" d="M192.45,68.62c-3.31,0-6.61-2-9.81-5.91L163.51,39.14C175.38,37,181.4,31.33,181.4,22.27c0-6.47-2.74-11.29-8.13-14.32-4.28-2.41-9.94-3.63-16.82-3.63H127.6v2.4h.25c3.32,0,5.65.55,6.93,1.64,1.07.94,1.62,2.49,1.62,4.61v49.2c0,4.34-2.8,6.45-8.55,6.45h-.25V71H156v-2.4h-.25c-5.82,0-8.65-2-8.65-6V40.52h5.42L176,71H192.7v-2.4Zm-45.6-32h-.25V12c0-2,.83-3.25,2.47-3.75A21.26,21.26,0,0,1,153,8C164.26,8,170,12.9,170,22.52,170,31.88,162.21,36.62,146.85,36.62Z"/><path class="cls-1" d="M281,71H252.7v-2.4H253c5.75,0,8.55-2.11,8.55-6.45v-47L236.21,71h-1.62l-.07-.15L209.9,17.51V62.67c0,4,3.09,6,9.45,6h.25V71H195v-2.4h.25c6.56,0,9.75-2.11,9.75-6.45V13c0-4.21-3.19-6.25-9.75-6.25H195V4.32h20.71l.06.15L238.58,54.6l22-50.28H281v2.4h-.25c-5.76,0-8.55,2-8.55,6.25v49.2c0,4.34,2.79,6.45,8.55,6.45H281Z"/><path class="cls-1" d="M353.05,68.62c-3.35,0-5.93-2-7.67-6.05l-25.9-59.5-.07-.15H317L293.42,59c-2.68,6.4-5.87,9.65-9.47,9.65h-.25V71h20.4v-2.4h-.25c-4.55,0-6.75-1.43-6.75-4.34a18.15,18.15,0,0,1,1.2-4.55l4.12-10.31h26.1l5,12.19a11.5,11.5,0,0,1,.89,3.54,2.52,2.52,0,0,1-.71,1.93c-1,1-3.07,1.54-6.14,1.54h-.25V71h26v-2.4Zm-49.56-23.3,12-28.58,12,28.58Z"/><path class="cls-2" d="M412.26,71H355.19V69.49l.05-.07,43.52-60.9H376.44c-5,0-8.74,1.08-11.18,3.21s-4,5.49-4.57,10l0,.22h-3.1l2.06-17.6H412.9l0,1.5,0,.06L369.64,66.82h26.57c4.91,0,8.69-1.43,11.24-4.25,1.76-2,3.26-5.16,4.45-9.47l.05-.18h2.78Z"/><path class="cls-2" d="M549.39,72.42h-1.75l-.08-.1L503.49,17.9V62.67c0,4,3.09,6,9.45,6h.25V71h-24.3v-2.4h.25c6.36,0,9.45-2.24,9.45-6.85V12.16a38.88,38.88,0,0,0-3-3.5,10,10,0,0,0-6.44-1.94h-.25V4.32h17.57l.08.09L544.49,52V12.67c0-4-3.09-5.95-9.45-5.95h-.25V4.32h24.3v2.4h-.25c-6.36,0-9.45,2.11-9.45,6.45Z"/><path class="cls-1" d="M451.73,73.94a37,37,0,0,1-31.94-55.45A36.94,36.94,0,0,1,470.27,5h0a37,37,0,0,1-18.54,69Z"/><path class="cls-2" d="M486.8,18.49a37,37,0,1,0-31.94,55.43A37,37,0,0,0,486.8,18.49ZM439,37.68l-5.33-3.08.75-1.29.43.25c.17.1.43.24.84-.47l3.66-6.33-1.09-.62,1-1.79,1.09.62.72-1.23a3.48,3.48,0,0,1,2.67-1.69,5.09,5.09,0,0,1,3.36.65A3.54,3.54,0,0,1,449,25.15a2.73,2.73,0,0,1-.31,1.83,1.89,1.89,0,0,1-1.08.95,1.7,1.7,0,0,1-1.39-.22h0a1.79,1.79,0,0,1-.8-1,1.5,1.5,0,0,1,.06-1.4,2.28,2.28,0,0,1,.81-.87l.17-.1-.12-.08a.55.55,0,0,0-.77.06,3,3,0,0,0-.53.76L444,27.05l1.69,1-1,1.79-1.69-1-3.65,6.32a1.42,1.42,0,0,0-.27.75h0a1.48,1.48,0,0,0,.29.22l.43.25Zm8.79,15.85a28.79,28.79,0,0,1-3.54,4.88l-1.7,1.88a1,1,0,0,1-1.32.21,1.05,1.05,0,0,1-.48-1.25l.78-2.41A29.19,29.19,0,0,1,444,51.33l17.37-30.08a29.77,29.77,0,0,1,3.54-4.88l1.7-1.88a1,1,0,0,1,1.32-.21,1.07,1.07,0,0,1,.49,1.25l-.79,2.41a28.57,28.57,0,0,1-2.45,5.51Zm26.17-10.48-8.12,4.86L466,48a3.17,3.17,0,0,0,2,.45,2.66,2.66,0,0,0,1.76-1.14l.27-.35,1.31.77-2.49,3.75-8-4.63.54-.92,8.24-5-.21-.12a2.6,2.6,0,0,0-1.93-.47,4,4,0,0,0-1.3,1l-.27.25-1.2-.69L467,37.6l7.6,4.39Z"/></g></g></svg>