<?xml version="1.0" encoding="utf-8"?>
<!-- Generator: Adobe Illustrator 21.0.2, SVG Export Plug-In . SVG Version: 6.00 Build 0)  -->
<svg version="1.1" id="pill" xmlns="http://www.w3.org/2000/svg" xmlns:xlink="http://www.w3.org/1999/xlink" x="0px" y="0px"
	 viewBox="0 0 128 128" style="enable-background:new 0 0 128 128;" xml:space="preserve">
<style type="text/css">
	.st0{fill:#FFFFFF;}
	.st1{fill:#A7FCD0;}
	.st2{fill:#EAEAEA;}
	.st3{fill:#ADADAD;}
	.st4{fill:#FF4848;}
	.st5{fill:#EA291C;}
	.st6{fill:#46600E;}
	.st7{opacity:0.5;fill:#074370;}
</style>
<g>
	<path class="st0" d="M50.3,108.7H29.7c-3,0-5.6,2.1-5.9,4.8c2.8,2.3,5.9,4.4,9.1,6.2h17.4c3.3,0,6-2.5,6-5.5S53.6,108.7,50.3,108.7
		z"/>
	<circle class="st1" cx="64" cy="64" r="64"/>
	<path class="st0" d="M99,108.7H78.4c-3.3,0-6,2.5-6,5.5s2.7,5.5,6,5.5h17.3c3.3-1.8,6.4-3.9,9.2-6.3
		C104.5,110.8,102,108.7,99,108.7z"/>
	<path class="st2" d="M120.5,67.8c0-4.4-3.6-8-8-8h-95c-4.4,0-8,3.6-8,8v29C20.6,115.5,41,128,64.4,128c24.1,0,45.1-13.4,56-33.1
		V67.8z"/>
	<path class="st3" d="M99,98H78c-6.1,0-11-4.7-11-10.5S71.9,77,78,77h21c6.1,0,11,4.7,11,10.5S105.1,98,99,98z M78,79
		c-5,0-9,3.8-9,8.5s4,8.5,9,8.5h21c5,0,9-3.8,9-8.5s-4-8.5-9-8.5H78z"/>
	<path class="st0" d="M50.3,108.7H29.7c-3,0-5.6,2.1-5.9,4.8c2.8,2.3,5.9,4.4,9.1,6.2h17.4c3.3,0,6-2.5,6-5.5S53.6,108.7,50.3,108.7
		z"/>
	<path class="st0" d="M56.3,87.6c0,3-2.7,5.5-6,5.5H29.7c-3.3,0-6-2.5-6-5.5s2.7-5.5,6-5.5h20.6C53.6,82.1,56.3,84.5,56.3,87.6z"/>
	<path class="st2" d="M50.3,89.7H29.7c-2.8,0-5.1-1.8-5.8-4.1c-0.1,0.5-0.2,0.9-0.2,1.4c0,3,2.7,5.5,6,5.5h20.6c3.3,0,6-2.5,6-5.5
		c0-0.5-0.1-1-0.2-1.4C55.4,87.9,53.1,89.7,50.3,89.7z"/>
	<path class="st4" d="M50.3,82.1h-10v11.1h10c3.3,0,6-2.5,6-5.5S53.6,82.1,50.3,82.1z"/>
	<path class="st5" d="M40.2,89.7v2.8h10c3.2,0,5.8-2.3,6-5.2c0-0.5-0.1-1-0.3-1.4c-0.8,2.2-3,3.8-5.7,3.8H40.2z"/>
	<path class="st6" d="M40,93.7c-0.6,0-1-0.4-1-1V83c0-0.6,0.4-1,1-1c0.6,0,1,0.4,1,1v9.7C41,93.2,40.5,93.7,40,93.7z"/>
	<path class="st6" d="M50.1,94H29.9c-3.8,0-6.9-2.8-6.9-6.4s3.1-6.5,6.9-6.5h20.2c3.8,0,6.9,2.9,6.9,6.5S53.9,94,50.1,94z
		 M29.9,83.1c-2.7,0-4.9,2-4.9,4.5c0,2.5,2.2,4.5,4.9,4.5h20.2c2.7,0,4.9-2,4.9-4.5c0-2.5-2.2-4.5-4.9-4.5H29.9z"/>
	<path class="st0" d="M52.8,87.6c-0.4,0-0.8-0.2-0.9-0.6c0-0.1-0.5-1-2.1-1h-6.6c-0.6,0-1-0.4-1-1s0.4-1,1-1h6.6c3,0,3.9,2.2,4,2.2
		c0.2,0.5,0,1.1-0.5,1.3C53.1,87.6,52.9,87.6,52.8,87.6z"/>
	<path class="st7" d="M27.1,87.6c-0.1,0-0.3,0-0.4-0.1c-0.5-0.2-0.7-0.8-0.5-1.3c0-0.1,1-2.2,4-2.2h6.6c0.6,0,1,0.4,1,1s-0.4,1-1,1
		h-6.6c-1.6,0-2.1,0.9-2.1,1C27.8,87.4,27.5,87.6,27.1,87.6z"/>
	<path class="st3" d="M51,98H29c-6.1,0-11-4.7-11-10.5S22.9,77,29,77h22c6.1,0,11,4.7,11,10.5S57.1,98,51,98z M29,79
		c-5,0-9,3.8-9,8.5s4,8.5,9,8.5h22c5,0,9-3.8,9-8.5S56,79,51,79H29z"/>
	<path class="st2" d="M50.3,116H29.7c-2.8,0-5.1-1.4-5.8-3.8c-0.1,0.4-0.2,0.8-0.2,1.3c2.6,2.1,5.3,4,8.1,5.7h18.5
		c3.3,0,6-2.5,6-5.5c0-0.5-0.1-1-0.2-1.4C55.4,114.6,53.1,116,50.3,116z"/>
	<path class="st4" d="M50.3,108.7h-10v11.1h10c3.3,0,6-2.5,6-5.5S53.6,108.7,50.3,108.7z"/>
	<path class="st5" d="M40.2,116v3.2h10c3.2,0,5.8-2.3,6-5.2c0-0.5-0.1-1-0.3-1.4c-0.8,2.2-3,3.5-5.7,3.5H40.2z"/>
	<path class="st6" d="M40,120.3c-0.6,0-1-0.4-1-1v-9.7c0-0.6,0.4-1,1-1s1,0.4,1,1v9.7C41,119.9,40.5,120.3,40,120.3z"/>
	<path class="st0" d="M52.8,114.3c-0.4,0-0.8-0.2-0.9-0.6c0-0.1-0.5-1.7-2.1-1.7h-6.6c-0.6,0-1.1-0.4-1.1-1s0.6-1,1.1-1h6.6
		c3,0,3.9,2.8,4,2.9c0.2,0.5,0,1.1-0.5,1.3C53.1,114.3,52.9,114.3,52.8,114.3z"/>
	<path class="st7" d="M27.1,114.3c-0.1,0-0.3,0-0.4-0.1c-0.5-0.2-0.7-0.8-0.5-1.3c0-0.1,1-2.9,4-2.9h6.6c0.6,0,1.2,0.4,1.2,1
		s-0.7,1-1.2,1h-6.6c-1.6,0-2.1,1.6-2.1,1.7C27.8,114.1,27.5,114.3,27.1,114.3z"/>
	<polygon class="st1" points="75.5,84 81.2,82.7 84.6,85 91.3,82.7 96.7,83.5 101.2,82.7 103.7,85.8 104.5,89.2 100.2,91 95.7,93.3 
		85.2,92.2 79.2,93.1 73.3,90.7 71.3,86.8 75,86.8 	"/>
	<path class="st3" d="M96.2,94c0,0-0.1,0-0.1,0l-10.3-1.1l-5.9,0.9c-0.2,0-0.4,0-0.5-0.1l-5.8-2.3c-0.2-0.1-0.4-0.2-0.5-0.4l-2-3.6
		c-0.2-0.3-0.1-0.6,0-0.9c0.2-0.3,0.5-0.5,0.9-0.5h2.8l0.4-1.9c0.1-0.4,0.4-0.7,0.8-0.8l5.6-1.3c0.3-0.1,0.6,0,0.8,0.1l3,1.9
		l6.2-2.1c0.2,0,0.3-0.1,0.5,0l5.1,0.8l4.3-0.8c0.4-0.1,0.7,0.1,1,0.3l2.5,3c0.1,0.1,0.1,0.2,0.2,0.4l0.8,3.2
		c0.1,0.5-0.1,0.9-0.6,1.1l-4.3,1.7l-4.4,2.2C96.5,94,96.4,94,96.2,94z M85.8,91c0,0,0.1,0,0.1,0L96,92.1l4.2-2.1l3.6-1.4l-0.6-2.2
		l-2-2.4l-3.9,0.7c-0.1,0-0.2,0-0.3,0L92,83.9l-6.5,2.1c-0.3,0.1-0.6,0.1-0.9-0.1l-3-2L77,85l-0.4,2.1c-0.1,0.5-0.5,0.8-1,0.8h-2
		l1.1,1.9l5.2,2.1l5.7-0.9C85.7,91,85.7,91,85.8,91z"/>
	<path class="st0" d="M53.3,42.7c-1,2.9-4.4,4.3-7.5,3.2L26.4,39c-3.1-1.1-4.8-4.4-3.8-7.2c1-2.9,4.4-4.3,7.5-3.2l19.4,6.9
		C52.7,36.6,54.4,39.9,53.3,42.7z"/>
	<path class="st2" d="M47,42.7l-19.4-6.9c-2.6-0.9-4.2-3.4-4.1-5.8c-0.3,0.4-0.5,0.8-0.7,1.3c-1,2.9,0.7,6.1,3.8,7.2L46,45.4
		c3.1,1.1,6.5-0.3,7.5-3.2c0.2-0.5,0.3-0.9,0.3-1.4C52.4,42.8,49.6,43.6,47,42.7z"/>
	<path class="st4" d="M49.6,35.5l-9.5-3.4l-3.7,10.4l9.5,3.4c3.1,1.1,6.5-0.3,7.5-3.2C54.4,39.9,52.7,36.6,49.6,35.5z"/>
	<path class="st5" d="M37.5,39.3l-1,2.7l9.5,3.4c3,1.1,6.3-0.2,7.4-2.9c0.1-0.5,0.2-1,0.2-1.5c-1.5,1.8-4.1,2.6-6.6,1.7L37.5,39.3z"
		/>
	<path class="st6" d="M36.3,43c-0.1,0-0.2,0-0.3-0.1c-0.5-0.2-0.8-0.8-0.6-1.3l3.3-9.1c0.2-0.5,0.8-0.8,1.3-0.6
		c0.5,0.2,0.8,0.8,0.6,1.3l-3.3,9.1C37.1,42.8,36.7,43,36.3,43z"/>
	<path class="st6" d="M48.4,47c-0.8,0-1.7-0.1-2.5-0.4l-19.2-6.9c-3.6-1.3-5.6-5.1-4.4-8.5c0.9-2.5,3.4-4.2,6.2-4.2
		c0.8,0,1.7,0.1,2.5,0.4l19.2,6.9c1.7,0.6,3.1,1.8,4,3.4c0.8,1.6,1,3.4,0.4,5C53.7,45.3,51.2,47,48.4,47z M28.6,29
		c-2,0-3.8,1.2-4.4,2.9c-0.8,2.3,0.6,5,3.2,5.9l19.2,6.9c0.6,0.2,1.2,0.3,1.8,0.3c2,0,3.8-1.2,4.4-2.9c0.4-1.1,0.3-2.3-0.3-3.5
		c-0.6-1.1-1.6-2-2.9-2.5l-19.2-6.9C29.8,29.1,29.2,29,28.6,29z"/>
	<path class="st0" d="M50,41.7c-0.5,0-0.9-0.4-1-0.9c0-0.1-0.1-1.1-1.6-1.7l-6-2.2l0.6-1.9l6,2.2c2.7,1,2.9,3.3,2.9,3.4
		C51,41.2,50.6,41.6,50,41.7C50.1,41.7,50.1,41.7,50,41.7z"/>
	<path class="st7" d="M36.5,34.7l-6.2-2.2c-1.6-0.6-2.3,0.2-2.3,0.2c-0.4,0.4-1,0.4-1.4,0.1c-0.4-0.4-0.4-1-0.1-1.4
		c0.1-0.1,1.7-1.8,4.5-0.8l6.2,2.2L36.5,34.7z"/>
	<path class="st0" d="M121.7,20c1.7,2.5,0.8,6.1-1.9,7.9l-17.1,11.4c-2.7,1.8-6.4,1.3-8.1-1.3c-1.7-2.5-0.8-6.1,1.9-7.9l17.1-11.4
		C116.3,16.9,120,17.5,121.7,20z"/>
	<path class="st2" d="M117.8,25.1l-17.1,11.4c-2.3,1.5-5.2,1.4-7.1-0.2c0.1,0.5,0.3,0.9,0.6,1.3c1.7,2.5,5.3,3.1,8.1,1.3l17.1-11.4
		c2.7-1.8,3.6-5.4,1.9-7.9c-0.3-0.4-0.6-0.8-1-1.1C121.1,20.8,120.1,23.5,117.8,25.1z"/>
	<path class="st4" d="M113.6,18.7l-8.4,5.6l6.1,9.2l8.4-5.6c2.7-1.8,3.6-5.4,1.9-7.9C120,17.5,116.3,16.9,113.6,18.7z"/>
	<path class="st5" d="M109.5,30.6L111,33l8.4-5.6c2.7-1.8,3.5-5.2,2.1-7.7c-0.3-0.4-0.7-0.7-1-1c0.6,2.3-0.4,4.9-2.6,6.4L109.5,30.6
		z"/>
	<path class="st6" d="M110.9,34.3c-0.3,0-0.6-0.2-0.8-0.4l-5.4-8c-0.3-0.5-0.2-1.1,0.3-1.4c0.5-0.3,1.1-0.2,1.4,0.3l5.4,8
		c0.3,0.5,0.2,1.1-0.3,1.4C111.3,34.2,111.1,34.3,110.9,34.3z"/>
	<path class="st6" d="M98.5,41c-2.2,0-4.2-1-5.4-2.7c-1-1.4-1.3-3.1-0.8-4.9c0.4-1.7,1.5-3.2,3.1-4.2l17.2-11.1
		c1.2-0.8,2.6-1.2,4.1-1.2c2.2,0,4.2,1,5.4,2.7c2,2.9,1,6.9-2.2,9l-17.2,11.1C101.3,40.6,99.9,41,98.5,41z M116.5,18.9
		c-1,0-2.1,0.3-3,0.9L96.4,30.9c-1.1,0.7-1.9,1.8-2.2,3c-0.3,1.2-0.1,2.4,0.6,3.3c0.8,1.1,2.2,1.8,3.7,1.8c1,0,2.1-0.3,3-0.9
		l17.2-11.1c2.3-1.5,3-4.3,1.6-6.3C119.5,19.6,118.1,18.9,116.5,18.9z"/>
	<path class="st0" d="M109.8,26l-1.1-1.7l5.5-3.7c2.5-1.7,4.5-0.4,4.5-0.3c0.5,0.3,0.6,0.9,0.3,1.4c-0.3,0.5-0.9,0.6-1.4,0.3
		c-0.1,0-1-0.5-2.3,0.3L109.8,26z"/>
	<path class="st7" d="M96.8,36.4c-0.5,0-0.9-0.3-1-0.8c0-0.1-0.4-2.4,2.1-4.1l5.5-3.7l1.1,1.7L99,33.2c-1.3,0.9-1.2,1.9-1.2,2
		c0.1,0.5-0.3,1.1-0.8,1.1C96.9,36.4,96.9,36.4,96.8,36.4z"/>
	<path class="st6" d="M121,93V67.8c0-5-3.7-8.8-8.7-8.8h-95c-5,0-9.3,3.8-9.3,8.8V95c0.6,1.1,1.3,2.2,2,3.3V67.8
		c0-3.9,3.5-6.8,7.3-6.8h95c3.9,0,6.7,2.9,6.7,6.8v28.9C119.7,95.5,120.4,94.3,121,93z"/>
	<path class="st3" d="M51,103H29c-4.3,0-8,3-9.8,6.5c0.5,0.5,1,1,1.5,1.4c1.4-3.1,4.6-5.9,8.3-5.9H51c5,0,9,4.5,9,9.2s-4,8.8-9,8.8
		H39c1.7,0.7,3.5,1.4,5.3,2H51c6.1,0,11-4.9,11-10.8C62,108.4,57,103,51,103z"/>
	<path class="st6" d="M50.3,107H29.7c-3.3,0-6.7,2-6.8,5.8c0.6,0.5,1.2,1,1.8,1.5c0,0,0,0,0,0c0-2.5,1.6-5.2,4.3-5.2h21.3
		c2.8,0,4.7,2.8,4.7,5.2c0,2.5-2,4.8-4.7,4.8H31.2c1.2,0.7,2.3,1.4,3.5,2h15.6c3.9,0,6.7-3.2,6.7-6.8S54.2,107,50.3,107z"/>
	<path class="st0" d="M78.4,108.7H99c3,0,5.6,2.1,5.9,4.8c-2.8,2.3-5.9,4.4-9.1,6.2H78.4c-3.3,0-6-2.5-6-5.5S75.1,108.7,78.4,108.7z
		"/>
	<path class="st2" d="M78.4,116.3H99c2.8,0,5.1-1.8,5.8-4.1c0.1,0.4,0.2,0.8,0.2,1.3c-2.6,2.1-5.3,4-8.1,5.7H78.4
		c-3.3,0-6-2.5-6-5.5c0-0.5,0.1-1,0.2-1.4C73.3,114.6,75.6,116.3,78.4,116.3z"/>
	<path class="st4" d="M78.4,108.7h10v11.1h-10c-3.3,0-6-2.5-6-5.5S75.1,108.7,78.4,108.7z"/>
	<path class="st5" d="M88.4,116.3v2.8h-10c-3.2,0-5.8-2.3-6-5.2c0-0.5,0.1-1,0.3-1.4c0.8,2.2,3,3.8,5.7,3.8H88.4z"/>
	<path class="st6" d="M89,120.3c0.6,0,1-0.4,1-1v-9.7c0-0.6-0.8-1-1.3-1c-0.6,0-0.7,0.4-0.7,1v9.7C88,119.9,87.4,120.3,89,120.3z"/>
	<path class="st0" d="M75.9,113.3c0.4,0,0.8-0.2,0.9-0.6c0-0.1,0.5-0.7,2.1-0.7h6.6c0.6,0,1.4-0.4,1.4-1s-0.9-1-1.4-1h-6.6
		c-3,0-3.9,1.8-4,1.9c-0.2,0.5,0,1.1,0.5,1.3C75.6,113.3,75.8,113.3,75.9,113.3z"/>
	<path class="st7" d="M101.6,113.3c0.1,0,0.3,0,0.4-0.1c0.5-0.2,0.7-0.8,0.5-1.3c0-0.1-1-1.9-4-1.9h-6.6c-0.6,0-1,0.4-1,1s0.4,1,1,1
		h6.6c1.6,0,2.1,0.6,2.1,0.7C100.9,113.1,101.2,113.3,101.6,113.3z"/>
	<path class="st3" d="M77.7,103h21.9c4.3,0,8,3,9.8,6.5c-0.5,0.5-1,1-1.5,1.4c-1.4-3.1-4.6-5.9-8.3-5.9H77.7c-5,0-8.7,4.5-8.7,9.2
		s3.8,8.8,8.7,8.8h11.9c-1.7,0.7-3.5,1.4-5.3,2h-6.6c-6.1,0-10.7-4.9-10.7-10.8C67,108.4,71.7,103,77.7,103z"/>
	<path class="st6" d="M78.4,107H99c3.3,0,6.1,2.9,6.8,5.8c-0.6,0.5-1.2,1-1.8,1.5c0,0,0,0,0,0c0-2.5-2.2-5.2-5-5.2H78.4
		c-2.8,0-4.4,2.8-4.4,5.2c0,2.5,1.6,4.8,4.4,4.8h19.1c-1.2,0.7-2.3,1.4-3.5,2H78.4c-3.9,0-6.4-3.2-6.4-6.8S74.5,107,78.4,107z"/>
	<path class="st0" d="M17,52c-2.2,0-4-1.8-4-4c0-2.2,1.8-4,4-4c2.2,0,4,1.8,4,4C21,50.2,19.2,52,17,52z M17,45.9
		c-1.2,0-2.1,1-2.1,2.1c0,1.2,1,2.1,2.1,2.1c1.2,0,2.1-1,2.1-2.1C19.1,46.8,18.2,45.9,17,45.9z"/>
	<path class="st0" d="M81,23c-2.2,0-4-1.8-4-4c0-2.2,1.8-4,4-4c2.2,0,4,1.8,4,4C85,21.2,83.2,23,81,23z M81,16.9
		c-1.2,0-2.1,1-2.1,2.1c0,1.2,1,2.1,2.1,2.1c1.2,0,2.1-1,2.1-2.1C83.1,17.8,82.2,16.9,81,16.9z"/>
	<path class="st0" d="M114,52c-2.2,0-4-1.8-4-4c0-2.2,1.8-4,4-4c2.2,0,4,1.8,4,4C118,50.2,116.2,52,114,52z M114,46
		c-1.1,0-2,0.9-2,2c0,1.1,0.9,2,2,2c1.1,0,2-0.9,2-2C116,46.9,115.1,46,114,46z"/>
	<path class="st0" d="M55.9,16.7c0-0.4-0.4-0.8-1-0.9L53,15.6c-0.5-0.1-1.1-0.6-1.1-1.1l-0.3-1.9c-0.1-0.5-0.5-1-0.9-1
		c-0.4,0-0.8,0.4-0.9,1l-0.3,1.9c-0.1,0.5-0.6,1.1-1.1,1.1l-1.9,0.3c-0.5,0.1-1,0.5-1,0.9c0,0.4,0.4,0.8,1,0.9l1.9,0.3
		c0.5,0.1,1.1,0.6,1.1,1.1l0.3,1.9c0.1,0.5,0.5,1,0.9,1c0.4,0,0.8-0.4,0.8-1l0.3-2.1c0.1-0.5,0.6-1,1.1-1.1l1.8-0.1
		C55.4,17.4,55.9,17.1,55.9,16.7z"/>
	<path class="st0" d="M73.8,43.9c0-0.4-0.4-0.8-1-0.9L71,42.7c-0.5-0.1-1.1-0.6-1.1-1.1l-0.3-1.9c-0.1-0.5-0.5-1-0.9-1
		c-0.4,0-0.8,0.4-0.9,1l-0.3,1.9c-0.1,0.5-0.6,1.1-1.1,1.1L64.5,43c-0.5,0.1-1,0.5-1,0.9c0,0.4,0.4,0.8,1,0.9l1.9,0.3
		c0.5,0.1,1.1,0.6,1.1,1.1l0.3,1.9c0.1,0.5,0.5,1,0.9,1c0.4,0,0.8-0.4,0.8-1l0.3-2.1c0.1-0.5,0.6-1,1.1-1.1l1.8-0.1
		C73.4,44.6,73.8,44.3,73.8,43.9z"/>
	<path class="st0" d="M116.2,96c-0.6,0-1-0.4-1-1V71.2c0-5.2-1.7-6.2-4.7-6.2H40c-0.6,0-1-0.4-1-1c0-0.6,0.4-1,1-1h70.6
		c5.9,0,6.7,4.4,6.7,8.2V95C117.2,95.6,116.8,96,116.2,96z"/>
	<path class="st0" d="M30,65H18c-0.6,0-1-0.4-1-1c0-0.6,0.5-1,1-1h12c0.6,0,1,0.4,1,1C31,64.6,30.5,65,30,65z"/>
</g>
</svg>
