<svg xmlns="http://www.w3.org/2000/svg" viewBox="0 0 559.09 73.92"><defs><style>.cls-1{fill:#508a7b;}.cls-2{fill:#74c9b4;}</style></defs><title>Senza Traccia</title><g id="Livello_2" data-name="Livello 2"><g id="Livello_1-2" data-name="Livello 1"><path class="cls-1" d="M28.5,71H0V68.6H.25C6,68.6,8.8,66.49,8.8,62.15V13c0-2.12-.54-3.67-1.62-4.62C5.91,7.25,3.57,6.7.25,6.7H0V4.3H53.7V19.1H51.05l0-.2c-.79-3.6-1.81-6.12-3-7.49C46.48,9.74,44.13,8.9,41,8.9H24a6.24,6.24,0,0,0-3.16.55c-.86.56-1.29,1.7-1.29,3.4V33.8H33.75c7.3,0,10.85-3.06,10.85-9.35V24.2h2.6V48.1H44.6v-.25a8.7,8.7,0,0,0-3.5-7.5,12.79,12.79,0,0,0-7.35-2H19.5V62.65c0,4,2.86,5.95,8.75,5.95h.25Z"/><path class="cls-1" d="M125.25,68.6c-3.34,0-5.92-2-7.67-6L91.68,3.05l-.07-.15H89.18L65.62,59c-2.68,6.4-5.87,9.65-9.47,9.65H55.9V71H76.3V68.6h-.25c-4.54,0-6.75-1.43-6.75-4.34a18.12,18.12,0,0,1,1.21-4.55L74.63,49.4h26.1l5,12.19a11.43,11.43,0,0,1,.89,3.54,2.55,2.55,0,0,1-.71,1.93c-1,1-3.06,1.54-6.14,1.54H99.5V71h26V68.6ZM75.7,45.3l12-28.59,12,28.59Z"/><path class="cls-1" d="M192.45,68.6c-3.31,0-6.61-2-9.81-5.91L163.51,39.12C175.38,37,181.4,31.31,181.4,22.25c0-6.47-2.74-11.29-8.13-14.32C169,5.52,163.33,4.3,156.45,4.3H127.6V6.7h.25c3.32,0,5.65.55,6.93,1.63,1.07.95,1.62,2.5,1.62,4.62v49.2c0,4.34-2.8,6.45-8.55,6.45h-.25V71H156V68.6h-.25c-5.82,0-8.65-1.95-8.65-5.95V40.5h5.42L176,71H192.7V68.6Zm-45.6-32h-.25V12c0-2,.83-3.25,2.47-3.75A20.33,20.33,0,0,1,153,8C164.26,8,170,12.88,170,22.5,170,31.85,162.21,36.6,146.85,36.6Z"/><path class="cls-1" d="M281,71H252.7V68.6H253c5.75,0,8.55-2.11,8.55-6.45v-47L236.21,71h-1.62l-.07-.15L209.9,17.49V62.65c0,4,3.09,5.95,9.45,5.95h.25V71H195V68.6h.25c6.56,0,9.75-2.11,9.75-6.45V13c0-4.21-3.19-6.25-9.75-6.25H195V4.3h20.71l.06.14,22.81,50.14,22-50.28H281V6.7h-.25c-5.76,0-8.55,2-8.55,6.25v49.2c0,4.34,2.79,6.45,8.55,6.45H281Z"/><path class="cls-1" d="M353.05,68.6c-3.35,0-5.93-2-7.67-6l-25.9-59.5-.07-.15H317L293.42,59c-2.68,6.4-5.87,9.65-9.47,9.65h-.25V71h20.4V68.6h-.25c-4.55,0-6.75-1.43-6.75-4.34a18,18,0,0,1,1.2-4.55l4.12-10.31h26.1l5,12.19a11.43,11.43,0,0,1,.89,3.54,2.55,2.55,0,0,1-.71,1.93c-1,1-3.07,1.54-6.14,1.54h-.25V71h26V68.6ZM303.49,45.3l12-28.59,12,28.59Z"/><path class="cls-2" d="M412.26,71H355.19V69.47l.05-.07L398.76,8.5H376.44c-5,0-8.74,1.08-11.18,3.21s-4,5.49-4.57,10l0,.22h-3.1l2.06-17.6H412.9l0,1.5,0,.06L369.64,66.8h26.57c4.91,0,8.69-1.43,11.24-4.25,1.76-2,3.26-5.16,4.45-9.47l.05-.18h2.78Z"/><path class="cls-2" d="M549.39,72.4l-1.75,0-.08-.09L503.49,17.88V62.65c0,4,3.09,5.95,9.45,5.95h.25V71h-24.3V68.6h.25c6.36,0,9.45-2.24,9.45-6.85V12.13a38,38,0,0,0-3-3.49,10,10,0,0,0-6.44-1.94h-.25V4.3h17.57l.08.09,37.95,47.54V12.65c0-4-3.09-5.95-9.45-5.95h-.25V4.3h24.3V6.7h-.25c-6.36,0-9.45,2.11-9.45,6.45Z"/><path class="cls-1" d="M451.73,73.92a37,37,0,1,1,18.54-69h0a37,37,0,0,1-18.54,69Z"/><path class="cls-2" d="M486.36,18.72A36.45,36.45,0,1,0,473,68.52,36.44,36.44,0,0,0,486.36,18.72Zm-39.85,8.53a1.31,1.31,0,0,1-.59-.71,1.06,1.06,0,0,1,0-1,1.83,1.83,0,0,1,.64-.68,1.16,1.16,0,0,0,.44-.36c.14-.22,0-.45-.4-.69a1,1,0,0,0-1.36.13,3.67,3.67,0,0,0-.62.88l-1.37,2.37,1.69,1-.53.93-1.69-1-3.91,6.76a1.67,1.67,0,0,0-.31,1.11,1,1,0,0,0,.52.54l-.25.42-4.47-2.58.25-.42c.58.33,1.08.12,1.53-.65l3.9-6.76-1.09-.63.54-.92,1.08.62,1-1.67a3,3,0,0,1,2.31-1.44,4.58,4.58,0,0,1,3,.59,3,3,0,0,1,1.68,2.1,2.16,2.16,0,0,1-.24,1.49A1.17,1.17,0,0,1,446.51,27.25Zm.83,26a28.71,28.71,0,0,1-3.48,4.79l-1.7,1.89a.57.57,0,0,1-1-.56L442,57a28.79,28.79,0,0,1,2.41-5.41l17.37-30.08a28.29,28.29,0,0,1,3.49-4.8l1.69-1.88a.57.57,0,0,1,1,.56l-.78,2.4a28.25,28.25,0,0,1-2.41,5.42Zm21.42-2.44-7.17-4.14.22-.38L470.67,41l-.95-.55a3,3,0,0,0-2.33-.51A4.88,4.88,0,0,0,465.9,41l-.42-.24,1.63-2.47,6.76,3.9-.3.51-8.74,5.23.95.55a3.61,3.61,0,0,0,2.35.51,3.14,3.14,0,0,0,2.1-1.33l.47.28Z"/></g></g></svg>